<svg width="44" height="20" viewBox="0 0 44 20" fill="none" xmlns="http://www.w3.org/2000/svg">
<path d="M16.1542 2.76094C14.3772 0.979687 12.0107 0 9.49576 0C4.30469 0 0.0805804 4.22411 0.0805804 9.41518C0.0805804 11.0734 0.51317 12.6935 1.33594 14.1228L0 19L4.99174 17.6895C6.36585 18.4402 7.91384 18.8346 9.49152 18.8346H9.49576C14.6826 18.8346 19 14.6105 19 9.41942C19 6.90446 17.9313 4.54219 16.1542 2.76094ZM9.49576 17.2484C8.08772 17.2484 6.70938 16.871 5.50915 16.1585L5.225 15.9888L2.26473 16.765L3.05357 13.8768L2.86696 13.5799C2.08237 12.333 1.67098 10.8953 1.67098 9.41518C1.67098 5.10201 5.18259 1.5904 9.5 1.5904C11.5908 1.5904 13.5545 2.40469 15.0304 3.88482C16.5063 5.36495 17.4138 7.32857 17.4096 9.41942C17.4096 13.7368 13.8089 17.2484 9.49576 17.2484ZM13.7877 11.3873C13.5545 11.2685 12.3967 10.7002 12.1804 10.6239C11.9641 10.5433 11.8071 10.5051 11.6502 10.7426C11.4933 10.9801 11.0438 11.506 10.9038 11.6672C10.7681 11.8241 10.6281 11.8453 10.3949 11.7266C9.01228 11.0353 8.10469 10.4924 7.19286 8.92745C6.95112 8.51183 7.4346 8.54152 7.88415 7.64241C7.96049 7.48549 7.92232 7.34978 7.86295 7.23103C7.80357 7.11228 7.33281 5.95446 7.13772 5.4837C6.94688 5.02567 6.75179 5.08929 6.60759 5.0808C6.47188 5.07232 6.31496 5.07232 6.15804 5.07232C6.00112 5.07232 5.74665 5.1317 5.53036 5.36495C5.31406 5.60245 4.70759 6.17076 4.70759 7.32857C4.70759 8.48638 5.55156 9.60603 5.66607 9.76295C5.78482 9.91987 7.32433 12.2949 9.68661 13.317C11.1795 13.9616 11.7647 14.0167 12.5112 13.9065C12.965 13.8386 13.9022 13.3382 14.0973 12.7868C14.2924 12.2355 14.2924 11.7647 14.233 11.6672C14.1779 11.5612 14.021 11.5018 13.7877 11.3873Z" fill="#27AE60"/>
<path d="M41.4639 1.9475C40.9678 1.49053 38.9603 0.033679 34.4843 0.0141502C34.4843 0.0141502 29.2076 -0.302216 26.6376 2.05686C25.2081 3.48637 24.7043 5.58376 24.6496 8.18109C24.5949 10.7784 24.5285 15.645 29.2193 16.9651H29.2232L29.2193 18.9805C29.2193 18.9805 29.1881 19.7968 29.7271 19.9609C30.3754 20.164 30.7582 19.5429 31.3792 18.8751C31.719 18.5079 32.1877 17.9689 32.5431 17.5588C35.7536 17.8283 38.2182 17.2112 38.4994 17.1214C39.1478 16.9105 42.8153 16.4418 43.4089 11.5752C44.026 6.55239 43.1121 3.38091 41.4639 1.9475ZM42.0068 11.2081C41.5029 15.27 38.5306 15.5278 37.9838 15.7036C37.7495 15.7778 35.5818 16.3168 32.8595 16.141C32.8595 16.141 30.8285 18.5899 30.1958 19.2266C29.9887 19.4336 29.7622 19.4141 29.7661 19.004C29.7661 18.7345 29.7817 15.6567 29.7817 15.6567C29.7778 15.6567 29.7778 15.6567 29.7817 15.6567C25.8057 14.5553 26.04 10.4113 26.083 8.24359C26.126 6.07589 26.5361 4.29877 27.7468 3.10361C29.9223 1.1312 34.4023 1.42413 34.4023 1.42413C38.1869 1.43975 39.9992 2.58023 40.421 2.963C41.8154 4.15816 42.5262 7.01718 42.0068 11.2081ZM36.5778 8.0522C36.5934 8.3881 36.0895 8.41153 36.0739 8.07564C36.031 7.21637 35.6287 6.79845 34.8006 6.75159C34.4647 6.73206 34.496 6.22821 34.828 6.24774C35.9177 6.30633 36.5231 6.93125 36.5778 8.0522ZM37.3706 8.49355C37.4097 6.83751 36.3747 5.5408 34.4101 5.39629C34.0781 5.37285 34.1132 4.86901 34.4452 4.89244C36.7106 5.05649 37.9174 6.61488 37.8745 8.50527C37.8706 8.84117 37.3628 8.82554 37.3706 8.49355ZM39.2063 9.01693C39.2102 9.35282 38.7025 9.35673 38.7025 9.02083C38.6791 5.83764 36.5582 4.10348 33.9843 4.08395C33.6523 4.08005 33.6523 3.58011 33.9843 3.58011C36.8629 3.59964 39.179 5.58767 39.2063 9.01693ZM38.765 12.8485V12.8563C38.3432 13.5984 37.5542 14.4186 36.7418 14.1569L36.734 14.1452C35.9099 13.9147 33.9687 12.9149 32.7423 11.9384C32.1096 11.4385 31.5315 10.8487 31.0863 10.2824C30.684 9.77855 30.2778 9.18097 29.8833 8.46231C29.0514 6.95859 28.8678 6.2868 28.8678 6.2868C28.6061 5.4744 29.4224 4.68544 30.1684 4.26362H30.1762C30.5356 4.07614 30.8793 4.13863 31.1097 4.41594C31.1097 4.41594 31.594 4.99399 31.801 5.27911C31.9963 5.54471 32.258 5.97043 32.3947 6.20868C32.6329 6.63441 32.4845 7.06795 32.2502 7.24762L31.7815 7.62257C31.5432 7.81395 31.5745 8.16938 31.5745 8.16938C31.5745 8.16938 32.2697 10.798 34.867 11.4619C34.867 11.4619 35.2225 11.4932 35.4138 11.2549L35.7888 10.7862C35.9685 10.5519 36.402 10.4035 36.8277 10.6417C37.4019 10.9659 38.1323 11.4697 38.6166 11.9267C38.89 12.1493 38.9525 12.4891 38.765 12.8485Z" fill="#8D97F0"/>
</svg>
